<svg id="Layer_1" data-name="Layer 1" xmlns="http://www.w3.org/2000/svg" viewBox="0 0 212.84 158.38"><defs><style>.cls-1{fill:#fff;}.cls-2{fill:none;stroke:#fff;stroke-linecap:round;stroke-linejoin:round;stroke-width:2px;}</style></defs><title>main-visual</title><path class="cls-1" d="M18.75,148.09h6.69c4.92,0,8.43,1.68,8.43,6.66s-3.51,7.05-8.31,7.05H22.23v8.37H18.75ZM25.23,159c3.54,0,5.22-1.35,5.22-4.26s-1.83-3.87-5.34-3.87H22.23V159Z" transform="translate(-15.21 -12.18)"/><path class="cls-1" d="M35.55,165.79c0-3.54,3-5.37,9.87-6.12,0-1.92-.72-3.6-3.15-3.6a9.07,9.07,0,0,0-4.77,1.68l-1.29-2.34a12.64,12.64,0,0,1,6.66-2.16c4.11,0,6,2.61,6,7v9.93H46.05l-.3-1.89h-.09a8.2,8.2,0,0,1-5.25,2.28A4.56,4.56,0,0,1,35.55,165.79Zm9.87.12v-4c-4.89.6-6.54,1.83-6.54,3.69,0,1.62,1.11,2.28,2.58,2.28A5.82,5.82,0,0,0,45.42,165.91Z" transform="translate(-15.21 -12.18)"/><path class="cls-1" d="M53.76,153.67h2.82l.27,3h.09c1.17-2.13,2.91-3.39,4.68-3.39a4.1,4.1,0,0,1,1.86.36l-.63,3a4.88,4.88,0,0,0-1.65-.27c-1.35,0-3,.93-4,3.54v10.29H53.76Z" transform="translate(-15.21 -12.18)"/><path class="cls-1" d="M66,146.26h3.36v15.42h.09l6.48-8h3.81l-5.61,6.69,6.24,9.81H76.65l-4.47-7.47-2.79,3.21v4.26H66Z" transform="translate(-15.21 -12.18)"/><path class="cls-1" d="M90.33,148.09h3.48v9h9.45v-9h3.48v22.08h-3.48v-10H93.81v10H90.33Z" transform="translate(-15.21 -12.18)"/><path class="cls-1" d="M111.27,165.79c0-3.54,3-5.37,9.87-6.12,0-1.92-.72-3.6-3.15-3.6a9.07,9.07,0,0,0-4.77,1.68l-1.29-2.34a12.64,12.64,0,0,1,6.66-2.16c4.11,0,6,2.61,6,7v9.93h-2.82l-.3-1.89h-.09a8.2,8.2,0,0,1-5.25,2.28A4.56,4.56,0,0,1,111.27,165.79Zm9.87.12v-4c-4.89.6-6.54,1.83-6.54,3.69,0,1.62,1.11,2.28,2.58,2.28A5.82,5.82,0,0,0,121.14,165.91Z" transform="translate(-15.21 -12.18)"/><path class="cls-1" d="M128.31,162c0-5.37,3.66-8.7,7.53-8.7,4.38,0,6.72,3.15,6.72,7.83a8.92,8.92,0,0,1-.15,1.74H131.7c.27,3.15,2.25,5,5.1,5a7,7,0,0,0,3.93-1.23l1.2,2.19a10,10,0,0,1-5.58,1.74C131.88,170.56,128.31,167.38,128.31,162Zm11.28-1.5c0-2.85-1.29-4.5-3.69-4.5-2.07,0-3.9,1.59-4.23,4.5Z" transform="translate(-15.21 -12.18)"/><path class="cls-1" d="M157.11,161.8l-6.63-13.71h3.72l2.55,5.85c.69,1.65,1.32,3.18,2.07,4.86h.12c.72-1.68,1.44-3.21,2.1-4.86l2.58-5.85h3.63l-6.66,13.71v8.37h-3.48Z" transform="translate(-15.21 -12.18)"/><path class="cls-1" d="M167.07,162c0-5.37,3.66-8.7,7.53-8.7,4.38,0,6.72,3.15,6.72,7.83a8.92,8.92,0,0,1-.15,1.74H170.46c.27,3.15,2.25,5,5.1,5a7,7,0,0,0,3.93-1.23l1.2,2.19a10,10,0,0,1-5.58,1.74C170.64,170.56,167.07,167.38,167.07,162Zm11.28-1.5c0-2.85-1.29-4.5-3.69-4.5-2.07,0-3.9,1.59-4.23,4.5Z" transform="translate(-15.21 -12.18)"/><path class="cls-1" d="M184,162c0-5.52,3.69-8.7,7.77-8.7s7.77,3.18,7.77,8.7-3.69,8.61-7.77,8.61S184,167.41,184,162Zm12,0c0-3.51-1.62-5.85-4.23-5.85s-4.2,2.34-4.2,5.85,1.62,5.79,4.2,5.79S196,165.43,196,162Z" transform="translate(-15.21 -12.18)"/><path class="cls-1" d="M203.61,153.67h2.82l.27,2.28h.09c1.53-1.47,3.21-2.7,5.46-2.7,3.51,0,5.07,2.34,5.07,6.54v10.38h-3.45v-10c0-2.85-.84-4-2.79-4-1.53,0-2.58.78-4.05,2.25v11.7h-3.42Z" transform="translate(-15.21 -12.18)"/><path class="cls-2" d="M18.73,14H33.31c9.84,0,17.4,3.42,17.4,13.92,0,10.14-7.62,14.7-17.16,14.7H27.61V58.42H18.73ZM33,35.62C39.07,35.62,42,33,42,27.94S38.77,21,32.65,21h-5V35.62Z" transform="translate(-15.21 -12.18)"/><path class="cls-2" d="M56.53,36c0-14.46,8.1-22.86,19.86-22.86S96.25,21.64,96.25,36s-8.1,23.22-19.86,23.22S56.53,50.44,56.53,36Zm30.66,0c0-9.54-4.2-15.24-10.8-15.24S65.59,26.5,65.59,36s4.2,15.54,10.8,15.54S87.19,45.52,87.19,36Z" transform="translate(-15.21 -12.18)"/><path class="cls-2" d="M129.13,58.42,120,41.62h-6.18v16.8H105V14h15.48c9.3,0,16.68,3.24,16.68,13.44,0,6.66-3.36,10.8-8.46,12.78L139,58.42ZM113.83,34.6h5.76c5.7,0,8.82-2.4,8.82-7.14S125.29,21,119.59,21h-5.76Z" transform="translate(-15.21 -12.18)"/><path class="cls-2" d="M153.55,21.4H141.07V14h34V21.4h-12.6v37h-8.88Z" transform="translate(-15.21 -12.18)"/><path class="cls-2" d="M193.33,38.08h16.38v6.3H193.33Z" transform="translate(-15.21 -12.18)"/><path class="cls-2" d="M16.21,110.08H32.59v6.3H16.21Z" transform="translate(-15.21 -12.18)"/><path class="cls-2" d="M54.55,86H81.91V93.4H63.43V105H79.21v7.44H63.43v18H54.55Z" transform="translate(-15.21 -12.18)"/><path class="cls-2" d="M86.71,108c0-14.46,8.1-22.86,19.86-22.86s19.86,8.46,19.86,22.86-8.1,23.22-19.86,23.22S86.71,122.44,86.71,108Zm30.66,0c0-9.54-4.2-15.24-10.8-15.24S95.77,98.5,95.77,108s4.2,15.54,10.8,15.54S117.37,117.52,117.37,108Z" transform="translate(-15.21 -12.18)"/><path class="cls-2" d="M135.13,86H144v37h18v7.44H135.13Z" transform="translate(-15.21 -12.18)"/><path class="cls-2" d="M169.75,86h8.88v44.4h-8.88Z" transform="translate(-15.21 -12.18)"/><path class="cls-2" d="M187.33,108c0-14.46,8.1-22.86,19.86-22.86S227,93.64,227,108s-8.09,23.22-19.85,23.22S187.33,122.44,187.33,108ZM218,108c0-9.54-4.2-15.24-10.8-15.24s-10.8,5.7-10.8,15.24,4.2,15.54,10.8,15.54S218,117.52,218,108Z" transform="translate(-15.21 -12.18)"/></svg>